<svg width="24" height="24" viewBox="0 0 24 24" fill="none" xmlns="http://www.w3.org/2000/svg">
<path d="M10.58 20.66L4.92999 14.9999C4.83626 14.907 4.76189 14.7964 4.71112 14.6745C4.66035 14.5526 4.63422 14.422 4.63422 14.29C4.63422 14.158 4.66035 14.0272 4.71112 13.9053C4.76189 13.7835 4.83626 13.6729 4.92999 13.5799L12.3 6.20991C12.4214 6.08652 12.5728 5.99686 12.7393 5.94953C12.9059 5.9022 13.0818 5.89881 13.25 5.93989L18.78 6.0799C18.9553 6.12285 19.1158 6.21254 19.2443 6.3393C19.3728 6.46606 19.4646 6.62527 19.51 6.79999L19.64 12.3299C19.6918 12.5045 19.695 12.6899 19.6492 12.8662C19.6034 13.0424 19.5103 13.2027 19.38 13.3299L12 20.7099C11.9038 20.8004 11.7906 20.871 11.6669 20.9175C11.5432 20.9641 11.4116 20.9857 11.2796 20.981C11.1475 20.9764 11.0177 20.9456 10.8976 20.8904C10.7776 20.8353 10.6696 20.7571 10.58 20.66Z" stroke="#A8A8A8" stroke-width="1.5" stroke-miterlimit="10"/>
<path d="M12.36 14.62C12.429 14.5577 12.4848 14.4822 12.5243 14.3981C12.5638 14.3139 12.5861 14.2229 12.59 14.13C12.5784 13.8761 12.5136 13.6274 12.4 13.4C12.17 12.9666 12.0337 12.4895 12 12C12.0149 11.5937 12.183 11.2081 12.4705 10.9205C12.758 10.633 13.1437 10.4648 13.55 10.45C13.983 10.4648 14.3971 10.6312 14.72 10.92L15.31 10.33L15.75 10.76L15.15 11.36C15.4145 11.6915 15.5527 12.1061 15.54 12.53C15.5002 12.9575 15.3002 13.354 14.98 13.64L14.19 12.86C14.3672 12.7051 14.4841 12.4926 14.52 12.26C14.5265 12.1578 14.5101 12.0553 14.472 11.9602C14.434 11.8651 14.3752 11.7796 14.3 11.71C14.2375 11.6353 14.1596 11.5753 14.0715 11.5338C13.9834 11.4924 13.8874 11.4705 13.79 11.47C13.6059 11.495 13.4361 11.5834 13.31 11.72C13.1789 11.8383 13.0999 12.0037 13.09 12.1801C13.109 12.4404 13.1769 12.6948 13.29 12.9301C13.5308 13.3611 13.6773 13.8381 13.72 14.33C13.7008 14.7384 13.5305 15.1253 13.2423 15.4154C12.9541 15.7055 12.5684 15.8782 12.16 15.9C11.7305 15.8745 11.322 15.7055 11 15.42L10.46 15.96L10.02 15.52L10.56 14.98C10.2607 14.6394 10.0784 14.2118 10.04 13.76C10.0399 13.5259 10.0908 13.2945 10.1893 13.082C10.2877 12.8696 10.4313 12.6813 10.61 12.53L11.4 13.3199C11.2982 13.3996 11.2156 13.5013 11.1585 13.6173C11.1014 13.7333 11.0711 13.8607 11.07 13.99C11.0864 14.2197 11.1901 14.4344 11.36 14.59C11.4999 14.746 11.6919 14.8456 11.9 14.87C12.0799 14.8493 12.2448 14.7597 12.36 14.62Z" fill="#A8A8A8"/>
<path d="M17 10C17.5523 10 18 9.55228 18 9C18 8.44772 17.5523 8 17 8C16.4477 8 16 8.44772 16 9C16 9.55228 16.4477 10 17 10Z" fill="#A8A8A8"/>
</svg>
