<svg width="48" height="48" viewBox="0 0 48 48" fill="none" xmlns="http://www.w3.org/2000/svg">
<path d="M22.5 8.82998L6.83002 40.17C6.64919 40.5655 6.63181 41.0163 6.78162 41.4246C6.93142 41.8328 7.2363 42.1654 7.63 42.35C7.84995 42.4494 8.08865 42.5006 8.33002 42.5H39.67C40.1165 42.4843 40.5387 42.2925 40.8441 41.9664C41.1496 41.6404 41.3135 41.2066 41.3 40.76C41.2914 40.5573 41.2474 40.3576 41.17 40.17L25.5 8.82998C25.3888 8.6326 25.2396 8.45916 25.0612 8.31958C24.8827 8.18 24.6784 8.07706 24.4601 8.01666C24.2417 7.95626 24.0136 7.93959 23.7888 7.96762C23.5639 7.99565 23.3469 8.06782 23.15 8.17999C22.8796 8.33525 22.6553 8.55956 22.5 8.82998Z" fill="#FCE100" stroke="#FFB900" stroke-miterlimit="10"/>
<path d="M24 36C24.5523 36 25 35.5523 25 35C25 34.4477 24.5523 34 24 34C23.4477 34 23 34.4477 23 35C23 35.5523 23.4477 36 24 36Z" fill="black"/>
<path d="M24 19C24.2652 19 24.5196 19.1054 24.7071 19.2929C24.8946 19.4804 25 19.7348 25 20V31C25 31.2652 24.8946 31.5196 24.7071 31.7071C24.5196 31.8946 24.2652 32 24 32C23.7348 32 23.4804 31.8946 23.2929 31.7071C23.1054 31.5196 23 31.2652 23 31V20C23 19.7348 23.1054 19.4804 23.2929 19.2929C23.4804 19.1054 23.7348 19 24 19Z" fill="black"/>
</svg>
