<svg width="24" height="24" viewBox="0 0 24 24" fill="none" xmlns="http://www.w3.org/2000/svg">
<path d="M16.56 11.17L11.36 13.8199L11.56 8.16002V7.03001C10.1269 6.92246 8.6954 7.25857 7.45996 7.99278C6.22451 8.72699 5.245 9.82369 4.65444 11.1339C4.06389 12.4441 3.89092 13.9044 4.15903 15.3163C4.42713 16.7282 5.12331 18.0233 6.15303 19.0259C7.18274 20.0284 8.49608 20.6897 9.91466 20.9199C11.3332 21.1502 12.7883 20.9382 14.0822 20.3128C15.3762 19.6875 16.4463 18.6789 17.1472 17.4243C17.8481 16.1697 18.1458 14.7298 18 13.3C17.9124 12.4372 17.6612 11.5988 17.26 10.8299L16.56 11.17Z" stroke="#A8A8A8" stroke-width="1.5" stroke-miterlimit="10"/>
<path d="M14.0601 9.64001L19.2501 6.98999L19.9301 6.64001C19.3892 5.58133 18.5875 4.67786 17.6008 4.01477C16.614 3.35168 15.4746 2.95078 14.2901 2.84998V3.97998L14.0601 9.64001Z" stroke="#A8A8A8" stroke-width="1.5" stroke-miterlimit="10"/>
</svg>
