<svg width="24" height="24" viewBox="0 0 24 24" fill="none" xmlns="http://www.w3.org/2000/svg">
<path d="M18.25 16H9.55C9.39242 15.9997 9.23955 15.9461 9.11615 15.8481C8.99275 15.7501 8.90601 15.6134 8.87 15.46L7 8H20.33C20.4093 8.00093 20.4873 8.01959 20.5584 8.05469C20.6295 8.08979 20.6918 8.14039 20.7407 8.20276C20.7897 8.26513 20.824 8.33777 20.8412 8.41516C20.8584 8.49256 20.858 8.57281 20.84 8.65002L19.18 15.27C19.1227 15.4748 19.0017 15.6558 18.8344 15.7871C18.6672 15.9184 18.4625 15.993 18.25 16Z" stroke="#A8A8A8" stroke-width="1.5" stroke-miterlimit="10"/>
<path d="M7 8L6 5L3 4" stroke="#A8A8A8" stroke-width="1.5" stroke-miterlimit="10"/>
<path d="M10.5 21C11.3284 21 12 20.3284 12 19.5C12 18.6716 11.3284 18 10.5 18C9.67157 18 9 18.6716 9 19.5C9 20.3284 9.67157 21 10.5 21Z" fill="#A8A8A8"/>
<path d="M16.5 21C17.3284 21 18 20.3284 18 19.5C18 18.6716 17.3284 18 16.5 18C15.6716 18 15 18.6716 15 19.5C15 20.3284 15.6716 21 16.5 21Z" fill="#A8A8A8"/>
</svg>
