<svg width="24" height="26" viewBox="0 0 24 26" fill="none" xmlns="http://www.w3.org/2000/svg">
<path d="M12 16C13.6569 16 15 14.6569 15 13C15 11.3431 13.6569 10 12 10C10.3431 10 9 11.3431 9 13C9 14.6569 10.3431 16 12 16Z" stroke="#757575" stroke-width="2" stroke-miterlimit="10" stroke-linecap="square"/>
<path d="M20 13C20.0211 12.6304 19.9875 12.2597 19.9 11.9C19.89 11.7143 19.9206 11.5286 19.9897 11.3559C20.0588 11.1832 20.1646 11.0276 20.3 10.9L21.8 9.80002C21.9869 9.64717 22.1178 9.43657 22.1721 9.20128C22.2264 8.96599 22.201 8.71934 22.1 8.50002L21 6.50002C20.8607 6.29585 20.6562 6.14506 20.42 6.07238C20.1838 5.9997 19.9299 6.00945 19.7 6.10002L17.9 6.80002C17.7307 6.85947 17.5485 6.87226 17.3726 6.83708C17.1967 6.80189 17.0334 6.72001 16.9 6.60002C16.3263 6.1389 15.6856 5.76798 15 5.50002C14.8298 5.44457 14.6809 5.33801 14.5735 5.19485C14.4662 5.05168 14.4056 4.87889 14.4 4.70003L14.2 2.80002C14.1632 2.55746 14.0434 2.33517 13.8611 2.17105C13.6787 2.00692 13.4451 1.91114 13.2 1.90002H11C10.7549 1.91114 10.5213 2.00692 10.3389 2.17105C10.1566 2.33517 10.0368 2.55746 9.99998 2.80002L9.79997 4.70003C9.77898 4.8743 9.71248 5.03998 9.60716 5.18041C9.50184 5.32084 9.36142 5.43107 9.2 5.50002C8.5338 5.80675 7.89768 6.17501 7.29997 6.60002C7.15729 6.70294 6.99421 6.77404 6.8217 6.80855C6.64919 6.84305 6.47126 6.84014 6.29997 6.80002L4.49998 6.10002C4.27004 6.00945 4.01616 5.9997 3.77995 6.07238C3.54374 6.14506 3.33924 6.29585 3.2 6.50002L2.09996 8.40003C1.98119 8.61565 1.94616 8.8675 2.00151 9.10737C2.05686 9.34723 2.19876 9.55825 2.40001 9.70003L3.90001 10.9C4.04257 11.0219 4.1534 11.1766 4.22307 11.3508C4.29273 11.525 4.31912 11.7134 4.29997 11.9C4.19992 12.6299 4.19992 13.3701 4.29997 14.1C4.33567 14.2875 4.31702 14.4813 4.24614 14.6585C4.17526 14.8357 4.05515 14.9889 3.90001 15.1L2.40001 16.3C2.21307 16.4529 2.08218 16.6635 2.02788 16.8988C1.97358 17.1341 1.9989 17.3807 2.09996 17.6L2.99998 19.5C3.13923 19.7042 3.34373 19.855 3.57994 19.9277C3.81615 20.0004 4.07003 19.9906 4.29997 19.9L6.09996 19.2C6.26926 19.1406 6.45142 19.1278 6.62736 19.163C6.80331 19.1982 6.96655 19.28 7.09996 19.4C7.67369 19.8611 8.31442 20.2321 8.99998 20.5C9.17013 20.5555 9.31907 20.662 9.42644 20.8052C9.53381 20.9484 9.59437 21.1212 9.59996 21.3L9.79997 23.2C9.83675 23.4426 9.95654 23.6649 10.1389 23.829C10.3213 23.9931 10.5549 24.0889 10.8 24.1H13C13.2451 24.0889 13.4787 23.9931 13.6611 23.829C13.8434 23.6649 13.9632 23.4426 14 23.2L14.2 21.3C14.221 21.1257 14.2875 20.9601 14.3928 20.8196C14.4981 20.6792 14.6385 20.569 14.8 20.5C15.4662 20.1933 16.1023 19.825 16.7 19.4C16.8427 19.2971 17.0058 19.226 17.1783 19.1915C17.3508 19.157 17.5287 19.1599 17.7 19.2L19.5 19.9C19.7299 19.9906 19.9838 20.0004 20.22 19.9277C20.4562 19.855 20.6607 19.7042 20.8 19.5L21.9 17.6C22.0188 17.3844 22.0538 17.1325 21.9985 16.8927C21.9431 16.6528 21.8012 16.4418 21.6 16.3L20.1 15.2C19.9448 15.0889 19.8247 14.9357 19.7538 14.7585C19.683 14.5813 19.6643 14.3875 19.7 14.2C19.9386 13.848 20.0449 13.4229 20 13V13Z" stroke="#757575" stroke-width="2" stroke-miterlimit="10" stroke-linecap="square"/>
</svg>
