<svg width="24" height="24" viewBox="0 0 24 24" fill="none" xmlns="http://www.w3.org/2000/svg">
<path d="M18 7.28004V18C18 18.2652 17.8946 18.5196 17.7071 18.7072C17.5196 18.8947 17.2652 19 17 19H7C6.73478 19 6.48043 18.8947 6.29289 18.7072C6.10536 18.5196 6 18.2652 6 18V5.00001C6 4.73479 6.10536 4.48039 6.29289 4.29286C6.48043 4.10532 6.73478 4.00001 7 4.00001H14.63C14.7605 3.99923 14.8861 4.04948 14.98 4.14002L17.85 6.92005C17.9423 7.0177 17.9957 7.14574 18 7.28004V7.28004Z" stroke="#A8A8A8" stroke-width="1.5" stroke-miterlimit="10"/>
<path d="M14 4V7.72998C14 7.80159 14.0284 7.87026 14.0791 7.9209C14.1297 7.97153 14.1984 8 14.27 8H18" stroke="#A8A8A8" stroke-width="1.5" stroke-miterlimit="10"/>
<path d="M14.25 10.75H9.75C9.33579 10.75 9 11.0858 9 11.5C9 11.9142 9.33579 12.25 9.75 12.25H14.25C14.6642 12.25 15 11.9142 15 11.5C15 11.0858 14.6642 10.75 14.25 10.75Z" fill="#A8A8A8"/>
<path d="M14.25 13.75H9.75C9.33579 13.75 9 14.0858 9 14.5C9 14.9142 9.33579 15.25 9.75 15.25H14.25C14.6642 15.25 15 14.9142 15 14.5C15 14.0858 14.6642 13.75 14.25 13.75Z" fill="#A8A8A8"/>
</svg>
