<svg width="24" height="24" viewBox="0 0 24 24" fill="none" xmlns="http://www.w3.org/2000/svg">
<path d="M15 14.38L17.65 17.03C18.0386 17.4327 18.2558 17.9704 18.2558 18.53C18.2558 19.0896 18.0386 19.6274 17.65 20.03V20.03C17.2486 20.421 16.7103 20.6396 16.15 20.6396C15.5896 20.6396 15.0514 20.421 14.65 20.03V20.03L12.24 17.61" stroke="#A8A8A8" stroke-width="1.5" stroke-miterlimit="10"/>
<path d="M11 11.9L6.10995 7.01001L4.58997 8.54004L9.40997 13.35" stroke="#A8A8A8" stroke-width="1.5" stroke-miterlimit="10"/>
<path d="M17 13.4399L19 11.4399L14.45 6.85999C13.9087 6.32321 13.1773 6.02209 12.415 6.02209C11.6527 6.02209 10.9213 6.32321 10.38 6.85999L17 13.4399Z" stroke="#A8A8A8" stroke-width="1.5" stroke-miterlimit="10"/>
<path d="M13.29 9.76001L4.37 17.91C4.27005 17.9984 4.18879 18.1058 4.13102 18.2261C4.07325 18.3463 4.04013 18.477 4.03361 18.6102C4.02708 18.7435 4.0473 18.8767 4.09305 19.0021C4.1388 19.1274 4.20915 19.2422 4.29999 19.34L5.29999 20.34C5.39312 20.4352 5.50436 20.511 5.62714 20.5626C5.74992 20.6143 5.88181 20.6409 6.01502 20.6409C6.14823 20.6409 6.28008 20.6143 6.40287 20.5626C6.52565 20.511 6.63688 20.4352 6.73002 20.34V20.34L14.87 11.4" stroke="#A8A8A8" stroke-width="1.5" stroke-miterlimit="10"/>
</svg>
