<svg width="24" height="24" viewBox="0 0 24 24" fill="none" xmlns="http://www.w3.org/2000/svg">
<path d="M18.13 20.5H5.86997C5.70251 20.4999 5.53714 20.463 5.38558 20.3917C5.23403 20.3205 5.10002 20.2168 4.99309 20.0879C4.88617 19.959 4.80896 19.8082 4.76694 19.6461C4.72492 19.484 4.71913 19.3146 4.74998 19.15L6.21998 11.05C6.29743 10.6157 6.52519 10.2223 6.86341 9.93896C7.20163 9.65559 7.62875 9.50019 8.06998 9.5H15.93C16.3712 9.50019 16.7983 9.65559 17.1365 9.93896C17.4748 10.2223 17.7025 10.6157 17.78 11.05L19.25 19.15C19.2808 19.3146 19.275 19.484 19.233 19.6461C19.191 19.8082 19.1138 19.959 19.0069 20.0879C18.8999 20.2168 18.7659 20.3205 18.6144 20.3917C18.4628 20.463 18.2974 20.4999 18.13 20.5V20.5Z" stroke="#A8A8A8" stroke-width="1.5" stroke-miterlimit="10"/>
<path d="M9 12V8C9 7.20435 9.31607 6.44127 9.87868 5.87866C10.4413 5.31605 11.2044 5 12 5V5C12.7956 5 13.5587 5.31605 14.1213 5.87866C14.6839 6.44127 15 7.20435 15 8V12" stroke="#A8A8A8" stroke-width="1.5" stroke-miterlimit="10"/>
</svg>
