<svg width="48" height="48" viewBox="0 0 48 48" fill="none" xmlns="http://www.w3.org/2000/svg">
<path d="M24 42C33.9411 42 42 33.9411 42 24C42 14.0589 33.9411 6 24 6C14.0589 6 6 14.0589 6 24C6 33.9411 14.0589 42 24 42Z" fill="#0075C0"/>
<path d="M24 18C24.5523 18 25 17.5523 25 17C25 16.4477 24.5523 16 24 16C23.4477 16 23 16.4477 23 17C23 17.5523 23.4477 18 24 18Z" fill="white"/>
<path d="M24 31C23.7661 31.0259 23.5313 30.9601 23.3448 30.8165C23.1584 30.673 23.0348 30.4628 23 30.23V21.77C23.0348 21.5373 23.1584 21.3271 23.3448 21.1835C23.5313 21.0399 23.7661 20.9742 24 21C24.2339 20.9742 24.4687 21.0399 24.6552 21.1835C24.8416 21.3271 24.9652 21.5373 25 21.77V30.23C24.9652 30.4628 24.8416 30.673 24.6552 30.8165C24.4687 30.9601 24.2339 31.0259 24 31Z" fill="white"/>
</svg>
