<svg width="24" height="24" viewBox="0 0 24 24" fill="none" xmlns="http://www.w3.org/2000/svg">
<path d="M12 2C10.0222 2 8.08877 2.58649 6.44427 3.6853C4.79978 4.78412 3.51811 6.3459 2.76123 8.17316C2.00435 10.0004 1.80629 12.0111 2.19214 13.9509C2.57799 15.8907 3.53043 17.6725 4.92896 19.0711C6.32748 20.4696 8.10926 21.422 10.0491 21.8079C11.9889 22.1937 13.9996 21.9957 15.8268 21.2388C17.6541 20.4819 19.2159 19.2002 20.3147 17.5557C21.4135 15.9112 22 13.9778 22 12C22 9.34784 20.9464 6.8043 19.071 4.92893C17.1957 3.05357 14.6522 2 12 2ZM12 0C14.3734 0 16.6935 0.703789 18.6669 2.02237C20.6403 3.34094 22.1783 5.21509 23.0865 7.4078C23.9948 9.60051 24.2324 12.0133 23.7694 14.3411C23.3064 16.6689 22.1635 18.8071 20.4853 20.4853C18.8071 22.1635 16.6688 23.3064 14.3411 23.7694C12.0133 24.2324 9.60049 23.9948 7.40778 23.0866C5.21506 22.1783 3.34092 20.6402 2.02234 18.6668C0.703762 16.6935 0 14.3734 0 12C0 8.8174 1.26427 5.76515 3.51471 3.51472C5.76515 1.26428 8.8174 0 12 0Z" fill="#707070"/>
<path d="M6 10C6.53043 10 7.03911 10.2107 7.41418 10.5858C7.78926 10.9609 8 11.4696 8 12C8 12.5304 7.78926 13.0391 7.41418 13.4142C7.03911 13.7893 6.53043 14 6 14C5.46957 14 4.96089 13.7893 4.58582 13.4142C4.21074 13.0391 4 12.5304 4 12C4 11.4696 4.21074 10.9609 4.58582 10.5858C4.96089 10.2107 5.46957 10 6 10Z" fill="#757575"/>
<path d="M12 10C12.5304 10 13.0391 10.2107 13.4142 10.5858C13.7893 10.9609 14 11.4696 14 12C14 12.5304 13.7893 13.0391 13.4142 13.4142C13.0391 13.7893 12.5304 14 12 14C11.4696 14 10.9609 13.7893 10.5858 13.4142C10.2107 13.0391 10 12.5304 10 12C10 11.4696 10.2107 10.9609 10.5858 10.5858C10.9609 10.2107 11.4696 10 12 10Z" fill="#757575"/>
<path d="M18 10C18.3956 10 18.7822 10.1173 19.1111 10.3371C19.44 10.5568 19.6964 10.8692 19.8478 11.2346C19.9992 11.6001 20.0387 12.0022 19.9615 12.3902C19.8844 12.7781 19.6939 13.1345 19.4142 13.4142C19.1345 13.6939 18.7782 13.8844 18.3902 13.9616C18.0022 14.0387 17.6001 13.9991 17.2346 13.8478C16.8692 13.6964 16.5568 13.44 16.337 13.1111C16.1173 12.7822 16 12.3956 16 12C16 11.4696 16.2107 10.9609 16.5858 10.5858C16.9609 10.2107 17.4696 10 18 10Z" fill="#757575"/>
</svg>
