<svg width="24" height="24" viewBox="0 0 24 24" fill="none" xmlns="http://www.w3.org/2000/svg">
<path d="M18 5H7C6.44772 5 6 5.44772 6 6V20C6 20.5523 6.44772 21 7 21H18C18.5523 21 19 20.5523 19 20V6C19 5.44772 18.5523 5 18 5Z" stroke="#A8A8A8" stroke-width="1.5" stroke-miterlimit="10"/>
<path d="M13.19 14.24C13.2001 14.0498 13.1355 13.8632 13.01 13.72C12.8218 13.5522 12.6003 13.4262 12.36 13.35C11.8811 13.2111 11.4354 12.9764 11.05 12.66C10.7738 12.3623 10.6203 11.9711 10.6203 11.5649C10.6203 11.1588 10.7738 10.7677 11.05 10.47C11.3665 10.1731 11.7769 9.99622 12.21 9.96997V9.14001H12.83V9.98999C13.2533 10.0267 13.6466 10.2235 13.93 10.54C14.2001 10.8684 14.3391 11.2852 14.32 11.71H13.2C13.2166 11.4744 13.1493 11.2407 13.01 11.05C12.9424 10.9751 12.8587 10.9163 12.7652 10.8782C12.6717 10.8401 12.5707 10.8236 12.47 10.83C12.373 10.8199 12.2751 10.8317 12.1833 10.8646C12.0916 10.8975 12.0084 10.9506 11.94 11.02C11.8223 11.1632 11.7617 11.3449 11.77 11.53C11.7659 11.6181 11.7797 11.7059 11.8107 11.7885C11.8416 11.871 11.889 11.9464 11.95 12.01C12.1446 12.1789 12.3682 12.311 12.61 12.4C13.0884 12.5327 13.532 12.7681 13.91 13.09C14.0574 13.2352 14.1721 13.4102 14.2463 13.6034C14.3204 13.7966 14.3524 14.0034 14.34 14.21C14.3482 14.4107 14.3152 14.611 14.2429 14.7985C14.1707 14.9859 14.0608 15.1567 13.92 15.3C13.5989 15.5869 13.1899 15.7561 12.76 15.78V16.55H12.14V15.78C11.6864 15.7522 11.2543 15.5766 10.91 15.28C10.7406 15.1177 10.6104 14.9191 10.529 14.6991C10.4476 14.4791 10.4171 14.2435 10.44 14.01H11.55C11.5373 14.1386 11.5521 14.2684 11.5935 14.3909C11.6349 14.5133 11.7018 14.6255 11.79 14.72C11.9713 14.8655 12.1976 14.9432 12.43 14.9399C12.6375 14.9531 12.8419 14.885 13 14.75C13.0646 14.6823 13.1147 14.6022 13.1474 14.5145C13.1801 14.4269 13.1946 14.3334 13.19 14.24Z" fill="#A8A8A8"/>
<path d="M5 9H8" stroke="#A8A8A8" stroke-width="1.5" stroke-miterlimit="10" stroke-linecap="round"/>
<path d="M5 13H8" stroke="#A8A8A8" stroke-width="1.5" stroke-miterlimit="10" stroke-linecap="round"/>
<path d="M5 17H8" stroke="#A8A8A8" stroke-width="1.5" stroke-miterlimit="10" stroke-linecap="round"/>
</svg>
