<svg width="24" height="24" viewBox="0 0 24 24" fill="none" xmlns="http://www.w3.org/2000/svg">
<path d="M17.9 13.73L16.9 9.57998C16.849 9.38263 16.734 9.2078 16.5729 9.08291C16.4118 8.95803 16.2138 8.89022 16.01 8.89004H8.95999C8.75573 8.88847 8.55688 8.95568 8.39545 9.08084C8.23401 9.206 8.11939 9.38177 8.07001 9.57998L7.07001 13.73" stroke="#A8A8A8" stroke-width="1.5" stroke-miterlimit="10"/>
<path d="M9.42001 18.58V20.58C9.42135 20.6399 9.41069 20.6995 9.38867 20.7552C9.36665 20.811 9.3337 20.8618 9.29178 20.9047C9.24986 20.9475 9.19982 20.9815 9.14456 21.0048C9.0893 21.028 9.02995 21.0401 8.97 21.04H7.45999C7.33799 21.04 7.221 20.9915 7.13474 20.9053C7.04847 20.819 7 20.702 7 20.58V18.58" stroke="#A8A8A8" stroke-width="1.5" stroke-miterlimit="10"/>
<path d="M17.9 18.58V20.58C17.9013 20.6399 17.8906 20.6995 17.8686 20.7552C17.8466 20.811 17.8137 20.8618 17.7718 20.9047C17.7298 20.9475 17.6798 20.9815 17.6245 21.0048C17.5693 21.028 17.5099 21.0401 17.45 21.04H15.94C15.818 21.04 15.701 20.9915 15.6147 20.9053C15.5284 20.819 15.48 20.702 15.48 20.58V18.58" stroke="#A8A8A8" stroke-width="1.5" stroke-miterlimit="10"/>
<path d="M19.23 18.58H5.67999C5.57409 18.58 5.46924 18.559 5.37152 18.5182C5.2738 18.4774 5.18517 18.4175 5.11075 18.3422C5.03633 18.2668 4.9776 18.1774 4.93799 18.0792C4.89838 17.981 4.87868 17.8759 4.88001 17.77V15.4399C4.87878 15.2894 4.91804 15.1413 4.99368 15.0111C5.06933 14.8809 5.17858 14.7734 5.31 14.7L7 13.7H17.9L19.6 14.7C19.73 14.775 19.8382 14.8829 19.9136 15.0127C19.989 15.1425 20.0292 15.2898 20.03 15.4399V17.77C20.0313 17.8759 20.0116 17.981 19.972 18.0792C19.9324 18.1774 19.8737 18.2668 19.7993 18.3422C19.7248 18.4175 19.6362 18.4774 19.5385 18.5182C19.4408 18.559 19.3359 18.58 19.23 18.58Z" stroke="#A8A8A8" stroke-width="1.5" stroke-miterlimit="10"/>
<path d="M8.20996 16.15H8.50998" stroke="#A8A8A8" stroke-width="1.5" stroke-miterlimit="10" stroke-linecap="round"/>
<path d="M16.39 16.15H16.69" stroke="#A8A8A8" stroke-width="1.5" stroke-miterlimit="10" stroke-linecap="round"/>
<path d="M5.48999 6.91003L12.26 5L19 6.91003" stroke="#A8A8A8" stroke-width="1.5" stroke-miterlimit="10"/>
</svg>
