<svg width="24" height="24" viewBox="0 0 24 24" fill="none" xmlns="http://www.w3.org/2000/svg">
<path d="M4.99997 4.99998H19C19.1336 4.99114 19.2675 5.01094 19.3929 5.05807C19.5182 5.1052 19.632 5.17856 19.7267 5.27324C19.8214 5.36793 19.8947 5.48174 19.9419 5.60708C19.989 5.73241 20.0088 5.86637 20 5.99998C20.0088 6.13358 19.989 6.26754 19.9419 6.39287C19.8947 6.51821 19.8214 6.63202 19.7267 6.72671C19.632 6.82139 19.5182 6.89475 19.3929 6.94188C19.2675 6.98901 19.1336 7.00881 19 6.99998H4.99997C4.86637 7.00881 4.73242 6.98901 4.60709 6.94188C4.48176 6.89475 4.36791 6.82139 4.27323 6.72671C4.17855 6.63202 4.10521 6.51821 4.05808 6.39287C4.01095 6.26754 3.99114 6.13358 3.99997 5.99998C3.99114 5.86637 4.01095 5.73241 4.05808 5.60708C4.10521 5.48174 4.17855 5.36793 4.27323 5.27324C4.36791 5.17856 4.48176 5.1052 4.60709 5.05807C4.73242 5.01094 4.86637 4.99114 4.99997 4.99998Z" fill="white"/>
<path d="M4.99997 11H19C19.1336 10.9911 19.2675 11.0109 19.3929 11.0581C19.5182 11.1052 19.632 11.1786 19.7267 11.2732C19.8214 11.3679 19.8947 11.4817 19.9419 11.6071C19.989 11.7324 20.0088 11.8664 20 12C20.0088 12.1336 19.989 12.2675 19.9419 12.3929C19.8947 12.5182 19.8214 12.632 19.7267 12.7267C19.632 12.8214 19.5182 12.8947 19.3929 12.9419C19.2675 12.989 19.1336 13.0088 19 13H4.99997C4.86637 13.0088 4.73242 12.989 4.60709 12.9419C4.48176 12.8947 4.36791 12.8214 4.27323 12.7267C4.17855 12.632 4.10521 12.5182 4.05808 12.3929C4.01095 12.2675 3.99114 12.1336 3.99997 12C3.99114 11.8664 4.01095 11.7324 4.05808 11.6071C4.10521 11.4817 4.17855 11.3679 4.27323 11.2732C4.36791 11.1786 4.48176 11.1052 4.60709 11.0581C4.73242 11.0109 4.86637 10.9911 4.99997 11Z" fill="white"/>
<path d="M4.99997 17H19C19.1336 16.9911 19.2675 17.0109 19.3929 17.0581C19.5182 17.1052 19.632 17.1786 19.7267 17.2732C19.8214 17.3679 19.8947 17.4817 19.9419 17.6071C19.989 17.7324 20.0088 17.8664 20 18C20.0088 18.1336 19.989 18.2675 19.9419 18.3929C19.8947 18.5182 19.8214 18.632 19.7267 18.7267C19.632 18.8214 19.5182 18.8947 19.3929 18.9419C19.2675 18.989 19.1336 19.0088 19 19H4.99997C4.86637 19.0088 4.73242 18.989 4.60709 18.9419C4.48176 18.8947 4.36791 18.8214 4.27323 18.7267C4.17855 18.632 4.10521 18.5182 4.05808 18.3929C4.01095 18.2675 3.99114 18.1336 3.99997 18C3.99114 17.8664 4.01095 17.7324 4.05808 17.6071C4.10521 17.4817 4.17855 17.3679 4.27323 17.2732C4.36791 17.1786 4.48176 17.1052 4.60709 17.0581C4.73242 17.0109 4.86637 16.9911 4.99997 17Z" fill="white"/>
</svg>
