<svg width="24" height="24" viewBox="0 0 24 24" fill="none" xmlns="http://www.w3.org/2000/svg">
<path d="M12 19C15.866 19 19 15.866 19 12C19 8.13401 15.866 5 12 5C8.13401 5 5 8.13401 5 12C5 15.866 8.13401 19 12 19Z" stroke="#A8A8A8" stroke-width="1.5" stroke-miterlimit="10" stroke-linecap="round" stroke-dasharray="3.66 3.66"/>
<path d="M12.9 14.12C12.91 13.8848 12.8275 13.655 12.67 13.48C12.4324 13.268 12.1531 13.108 11.85 13.01C11.2536 12.8378 10.6988 12.5451 10.22 12.15C9.87128 11.7791 9.67712 11.2892 9.67712 10.78C9.67712 10.2709 9.87128 9.78095 10.22 9.41003C10.6116 9.03964 11.1218 8.81999 11.66 8.79004V7.79004H12.44V8.84998C12.9664 8.90491 13.4558 9.14613 13.82 9.53003C14.1612 9.94114 14.3328 10.4668 14.3 11V11H12.9C12.919 10.71 12.8339 10.4227 12.66 10.1899C12.5754 10.0941 12.4704 10.0184 12.3528 9.96826C12.2351 9.91809 12.1078 9.89476 11.98 9.90002C11.8591 9.88793 11.7369 9.90316 11.6227 9.9447C11.5084 9.98625 11.405 10.053 11.32 10.14C11.1725 10.3196 11.0976 10.548 11.11 10.78C11.1033 10.8913 11.1193 11.0028 11.1572 11.1077C11.195 11.2125 11.2538 11.3086 11.33 11.39C11.5761 11.5979 11.8571 11.7604 12.16 11.87C12.7565 12.0344 13.3096 12.328 13.78 12.73C13.9633 12.9123 14.1062 13.1312 14.1992 13.3724C14.2923 13.6137 14.3334 13.8718 14.32 14.13C14.3309 14.3811 14.2895 14.6317 14.1982 14.8658C14.107 15.1 13.9679 15.3125 13.79 15.49C13.3897 15.8502 12.8778 16.062 12.34 16.09V17.09H11.56V16.09C10.9924 16.0586 10.451 15.8407 10.02 15.47C9.81433 15.2646 9.65589 15.0169 9.55572 14.744C9.45555 14.4711 9.41608 14.1797 9.44003 13.89H10.82C10.8039 14.052 10.8233 14.2154 10.8769 14.3691C10.9304 14.5228 11.0168 14.6631 11.13 14.78C11.3526 14.9605 11.6338 15.0531 11.92 15.04C12.1809 15.0605 12.4394 14.978 12.64 14.8101C12.7318 14.7215 12.8027 14.6136 12.8477 14.4943C12.8927 14.3749 12.9106 14.2471 12.9 14.12V14.12Z" fill="#A8A8A8"/>
</svg>
