<svg width="24" height="24" viewBox="0 0 24 24" fill="none" xmlns="http://www.w3.org/2000/svg">
<path d="M17.5 17.9399C17.0797 18.6719 16.4738 19.2802 15.7435 19.7034C15.0131 20.1265 14.1841 20.3495 13.34 20.35H10.69C9.84828 20.3495 9.02135 20.1287 8.2915 19.7094C7.56166 19.29 6.95434 18.6869 6.52999 17.96V17.96C6.02684 17.0968 5.80555 16.0983 5.89697 15.1034C5.98839 14.1085 6.38797 13.167 7.03999 12.41L10.04 8.97998L7.33999 5.39001C7.31261 5.35125 7.29637 5.30576 7.29301 5.25842C7.28965 5.21109 7.29931 5.1637 7.32094 5.12146C7.34257 5.07922 7.37536 5.04373 7.41573 5.0188C7.45611 4.99386 7.50254 4.98041 7.55 4.97998C8.28274 5.02144 9.01725 5.02144 9.74999 4.97998C10.6 4.84998 12.18 3.97998 13.04 3.97998C14.198 4.137 15.3349 4.42205 16.43 4.82996C16.4968 4.84572 16.5585 4.87801 16.6096 4.92383C16.6607 4.96965 16.6994 5.0276 16.7223 5.09229C16.7452 5.15697 16.7515 5.22633 16.7406 5.29407C16.7297 5.36181 16.702 5.42573 16.66 5.47998L14 9L17 12.4C17.6456 13.1586 18.0403 14.0985 18.1298 15.0906C18.2193 16.0826 17.9993 17.078 17.5 17.9399V17.9399Z" stroke="#A8A8A8" stroke-width="1.5" stroke-miterlimit="10"/>
<path d="M7 9C7.78823 8.65467 8.63945 8.47644 9.5 8.47644C10.3606 8.47644 11.2118 8.65467 12 9C14 10 16.1 9 17 9" stroke="#A8A8A8" stroke-width="1.5" stroke-miterlimit="10"/>
</svg>
