<svg width="48" height="48" viewBox="0 0 48 48" fill="none" xmlns="http://www.w3.org/2000/svg">
<path d="M24 42C33.9411 42 42 33.9411 42 24C42 14.0589 33.9411 6 24 6C14.0589 6 6 14.0589 6 24C6 33.9411 14.0589 42 24 42Z" fill="#FF7777"/>
<path d="M24 31C24.5523 31 25 30.5523 25 30C25 29.4477 24.5523 29 24 29C23.4477 29 23 29.4477 23 30C23 30.5523 23.4477 31 24 31Z" fill="white"/>
<path d="M24 16C24.2339 15.9742 24.4687 16.0399 24.6552 16.1835C24.8416 16.3271 24.9652 16.5373 25 16.77V25.23C24.9652 25.4628 24.8416 25.673 24.6552 25.8165C24.4687 25.9601 24.2339 26.0259 24 26C23.7661 26.0259 23.5313 25.9601 23.3448 25.8165C23.1584 25.673 23.0348 25.4628 23 25.23V16.77C23.0348 16.5373 23.1584 16.3271 23.3448 16.1835C23.5313 16.0399 23.7661 15.9742 24 16Z" fill="white"/>
</svg>
